<svg xmlns="http://www.w3.org/2000/svg" viewBox="0 0 248 186"><defs><style>.cls-1{fill:#fff;}.cls-2{fill:#0a43a6;}</style></defs><g id="Layer_2" data-name="Layer 2"><g id="Layer_1-2" data-name="Layer 1"><g id="instagram"><polygon class="cls-1" points="217 186 0 186 31 0 248 0 217 186"/><path class="cls-2" d="M124,32.69c-16.38,0-18.43.07-24.86.37a44.45,44.45,0,0,0-14.65,2.81,29.26,29.26,0,0,0-10.67,6.94,29.91,29.91,0,0,0-7,10.69,44.75,44.75,0,0,0-2.81,14.65c-.3,6.43-.37,8.48-.37,24.86s.07,18.43.37,24.86a44.32,44.32,0,0,0,2.81,14.64,30.91,30.91,0,0,0,17.65,17.62,44.75,44.75,0,0,0,14.65,2.81c6.43.3,8.48.37,24.86.37s18.43-.07,24.86-.37a44.32,44.32,0,0,0,14.64-2.81,30.91,30.91,0,0,0,17.62-17.65A44.75,44.75,0,0,0,184,117.83c.3-6.43.37-8.48.37-24.86s-.07-18.42-.37-24.86a44.32,44.32,0,0,0-2.81-14.64,30.91,30.91,0,0,0-17.65-17.62A44.75,44.75,0,0,0,148.84,33c-6.41-.28-8.46-.35-24.84-.35Z"/><path class="cls-1" d="M124,55.67A37.33,37.33,0,1,0,161.33,93,37.34,37.34,0,0,0,124,55.67Zm0,61.56A24.23,24.23,0,1,1,148.23,93,24.23,24.23,0,0,1,124,117.23Z"/><circle class="cls-1" cx="161.33" cy="54.77" r="7.24"/></g></g></g></svg>