<svg xmlns="http://www.w3.org/2000/svg" viewBox="0 0 248 186"><defs><style>.cls-1{fill:#fff;}.cls-2{fill:#0a43a6;}</style></defs><g id="Layer_2" data-name="Layer 2"><g id="Layer_1-2" data-name="Layer 1"><g id="youtube"><polygon class="cls-1" points="217 186 0 186 31 0 248 0 217 186"/><path class="cls-2" d="M181.38,64.17a15,15,0,0,0-10.59-10.59c-9.34-2.5-46.79-2.5-46.79-2.5s-37.45,0-46.79,2.5A15,15,0,0,0,66.62,64.17C64.11,73.51,64.11,93,64.11,93s0,19.49,2.51,28.83a15,15,0,0,0,10.59,10.59c9.34,2.5,46.79,2.5,46.79,2.5s37.45,0,46.79-2.5a15,15,0,0,0,10.59-10.59c2.51-9.34,2.51-28.83,2.51-28.83s0-19.49-2.51-28.83Z"/><path class="cls-1" d="M112,111l31.12-18L112,75V111Z"/></g></g></g></svg>