<?xml version="1.0" encoding="UTF-8"?>
<svg id="Layer_2" data-name="Layer 2" xmlns="http://www.w3.org/2000/svg" viewBox="0 0 248 186">
  <defs>
    <style>
      .cls-1 {
        fill: #0a43a6;
      }

      .cls-2 {
        fill: #fff;
      }
    </style>
  </defs>
  <g id="Layer_1-2" data-name="Layer 1">
    <polygon class="cls-2" points="217 186 0 186 31 0 248 0 217 186"/>
    <path class="cls-1" d="M177.75,83.26c-11.36,0-22.31-3.65-30.63-9.94v42.19c0,21.09-17.24,38.33-38.33,38.33s-38.54-17.24-38.54-38.33,17.24-38.33,38.33-38.33c1.62,0,3.45.2,5.07.41v20.69c-9.53-2.84-19.67,2.64-22.51,12.17-2.84,9.53,2.64,19.67,12.17,22.51,9.53,2.84,19.67-2.64,22.51-12.17.41-1.62.81-3.45.81-5.07V32.15h21.3c0,16.43,13.39,29.82,29.82,29.82v21.3Z"/>
  </g>
</svg>