<?xml version="1.0" encoding="UTF-8"?>
<svg xmlns="http://www.w3.org/2000/svg" version="1.1" viewBox="0 0 8192 1862">
  <defs>
    <style>
      .cls-1 {
        fill: #fff;
      }
    </style>
  </defs>
  <!-- Generator: Adobe Illustrator 28.7.1, SVG Export Plug-In . SVG Version: 1.2.0 Build 142)  -->
  <g>
    <g id="Layer_1">
      <g id="Layer_1-2">
        <polygon class="cls-1" points="596 521 595.8 .1 0 .1 0 1564 297.9 1861.9 1117 1862 1117 1266 596 1266 596 1117 1117 1117 1117 521 596 521"/>
        <polygon class="cls-1" points="2755 521 2755 1266 2606 1266 2606 521 2011 521 2011 1266 1862 1266 1862 521 1266 521 1266 1564 1563.9 1861.9 3351 1862 3351 521 2755 521"/>
        <polygon class="cls-1" points="3500 521 4096 521 4096 1861.9 3500.2 1861.9 3500 521"/>
        <polygon class="cls-1" points="3500.2 .1 4096 .1 4096 373 3500 373 3500.2 .1"/>
        <polygon class="cls-1" points="5809 521 5511 819.3 5511 1564 5808.9 1861.9 6703 1862 6703 1266 6107 1266 6107 1117 6703 1117 6703 521 5809 521"/>
        <polygon class="cls-1" points="7894 521 7448 521 7448 0 6852 0 6852 1862 7447 1862 7447 1117 7596 1117 7596 1862 8192 1861.9 8192 819.3 7894 521"/>
        <polygon class="cls-1" points="4841 521 4840.7 .1 4245 0 4245 1564 4542.8 1861.9 5362 1861.9 5362 1266.1 4841 1266 4841 1117 5362 1117 5362 521 4841 521"/>
      </g>
    </g>
  </g>
</svg>