<?xml version="1.0" encoding="utf-8"?>
<!-- Generator: Adobe Illustrator 21.0.2, SVG Export Plug-In . SVG Version: 6.00 Build 0)  -->
<svg version="1.1" id="Layer_1" xmlns="http://www.w3.org/2000/svg" xmlns:xlink="http://www.w3.org/1999/xlink" x="0px" y="0px"
	 viewBox="0 0 130 32" style="enable-background:new 0 0 130 32;" xml:space="preserve">
<style type="text/css">
	.st0{fill:#fff;}
</style>
<g>
	<path class="st0" d="M41.4,6.3c-0.5-1.7-1.8-3.1-3.6-3.6c-3.1-0.8-15.7-0.8-15.7-0.8S9.6,1.9,6.4,2.8C4.7,3.2,3.3,4.6,2.9,6.3
		C2,9.5,2,16,2,16s0,6.5,0.8,9.7c0.5,1.7,1.8,3.1,3.6,3.6c3.1,0.8,15.7,0.8,15.7,0.8s12.6,0,15.7-0.8c1.7-0.5,3.1-1.8,3.6-3.6
		c0.8-3.1,0.8-9.7,0.8-9.7S42.2,9.5,41.4,6.3z M18.1,22V10l10.4,6L18.1,22z"/>
	<g>
		<g>
			<path class="st0" d="M60.3,27.5C59.5,27,59,26.2,58.6,25c-0.3-1.1-0.5-2.6-0.5-4.5V18c0-1.9,0.2-3.4,0.6-4.6c0.4-1.1,1-2,1.8-2.5
				c0.8-0.5,1.9-0.8,3.2-0.8c1.3,0,2.3,0.3,3.1,0.8c0.8,0.5,1.4,1.4,1.7,2.5c0.4,1.1,0.5,2.7,0.5,4.6v2.6c0,1.9-0.2,3.4-0.5,4.5
				c-0.4,1.1-0.9,2-1.7,2.5c-0.8,0.5-1.9,0.8-3.2,0.8C62.2,28.3,61.1,28.1,60.3,27.5z M64.8,24.8c0.2-0.6,0.3-1.5,0.3-2.8v-5.5
				c0-1.3-0.1-2.2-0.3-2.8c-0.2-0.6-0.6-0.9-1.2-0.9c-0.5,0-0.9,0.3-1.1,0.9c-0.2,0.6-0.3,1.5-0.3,2.8v5.5c0,1.3,0.1,2.2,0.3,2.8
				c0.2,0.6,0.6,0.9,1.1,0.9C64.2,25.6,64.6,25.3,64.8,24.8z"/>
			<path class="st0" d="M121.3,20.6v0.9c0,1.1,0,2,0.1,2.5c0.1,0.6,0.2,1,0.4,1.2c0.2,0.3,0.5,0.4,1,0.4c0.6,0,1-0.2,1.2-0.7
				c0.2-0.5,0.3-1.2,0.4-2.3l3.4,0.2c0,0.2,0,0.4,0,0.6c0,1.6-0.4,2.8-1.3,3.6c-0.9,0.8-2.1,1.2-3.8,1.2c-2,0-3.3-0.6-4.1-1.8
				c-0.8-1.2-1.2-3.1-1.2-5.7v-3.1c0-2.6,0.4-4.6,1.2-5.8c0.8-1.2,2.2-1.8,4.2-1.8c1.4,0,2.4,0.2,3.1,0.7c0.7,0.5,1.2,1.3,1.5,2.3
				c0.3,1.1,0.4,2.5,0.4,4.4v3H121.3z M121.8,13.1c-0.2,0.2-0.3,0.7-0.4,1.2c-0.1,0.6-0.1,1.4-0.1,2.6v1.3h2.9v-1.3
				c0-1.1,0-2-0.1-2.6c-0.1-0.6-0.2-1-0.4-1.2c-0.2-0.2-0.5-0.4-0.9-0.4C122.3,12.8,122,12.9,121.8,13.1z"/>
			<path class="st0" d="M50.7,20.2L46.2,3.9h3.9l1.6,7.4c0.4,1.8,0.7,3.4,0.9,4.7h0.1c0.1-0.9,0.4-2.5,0.9-4.6l1.6-7.4h3.9
				l-4.6,16.3V28h-3.9V20.2z"/>
			<path class="st0" d="M81.9,10.4V28h-3.1l-0.3-2.2h-0.1c-0.8,1.6-2.1,2.4-3.8,2.4c-1.2,0-2-0.4-2.6-1.1c-0.6-0.8-0.8-2-0.8-3.6
				V10.4h4v12.9c0,0.8,0.1,1.3,0.3,1.7c0.2,0.3,0.5,0.5,0.9,0.5c0.3,0,0.7-0.1,1-0.3c0.3-0.2,0.6-0.5,0.7-0.8v-14H81.9z"/>
			<path class="st0" d="M102.2,10.4V28h-3.1l-0.3-2.2h-0.1c-0.8,1.6-2.1,2.4-3.8,2.4c-1.2,0-2-0.4-2.6-1.1c-0.6-0.8-0.8-2-0.8-3.6
				V10.4h4v12.9c0,0.8,0.1,1.3,0.3,1.7c0.2,0.3,0.5,0.5,0.9,0.5c0.3,0,0.7-0.1,1-0.3c0.3-0.2,0.6-0.5,0.7-0.8v-14H102.2z"/>
			<path class="st0" d="M92.7,7.1h-3.9V28h-3.9V7.1h-3.9V3.9h11.7V7.1z"/>
			<path class="st0" d="M115.3,13.2c-0.2-1.1-0.6-1.9-1.2-2.4c-0.5-0.5-1.3-0.7-2.2-0.7c-0.7,0-1.4,0.2-2,0.6
				c-0.6,0.4-1.1,1-1.5,1.6h0l0-9.3h-3.8v25h3.3l0.4-1.7h0.1c0.3,0.6,0.8,1.1,1.4,1.4c0.6,0.3,1.3,0.5,2,0.5c1.3,0,2.3-0.6,3-1.9
				c0.6-1.2,0.9-3.2,0.9-5.8v-2.8C115.7,15.9,115.6,14.4,115.3,13.2z M111.7,20.4c0,1.3-0.1,2.3-0.2,3c-0.1,0.7-0.3,1.2-0.5,1.6
				c-0.2,0.3-0.6,0.5-1,0.5c-0.3,0-0.6-0.1-0.9-0.2c-0.3-0.2-0.5-0.4-0.7-0.7v-10c0.1-0.5,0.4-0.9,0.7-1.2c0.3-0.3,0.7-0.5,1.1-0.5
				c0.4,0,0.7,0.2,0.9,0.5c0.2,0.3,0.4,0.8,0.5,1.6c0.1,0.7,0.1,1.8,0.1,3.2V20.4z"/>
		</g>
	</g>
</g>
</svg>
