<svg viewBox="0 0 400 400" xmlns="http://www.w3.org/2000/svg" xmlns:xlink="http://www.w3.org/1999/xlink"><clipPath id="a"><path d="m0 0h400v400h-400z"/></clipPath><clipPath id="b"><path d="m0 0h400v400h-400z"/></clipPath><clipPath id="c"><path d="m0 0h400v400h-400z"/></clipPath><clipPath id="d"><path d="m-36.32-36.4h472.65v472.6h-472.65z"/></clipPath><g clip-path="url(#a)"><g clip-path="url(#b)"><g clip-path="url(#c)"><g clip-path="url(#d)" fill="#fff" opacity=".02"><path d="m14.51 68.81c-17.7-8.25-39.07.08-46.46 15.89-4.85 10.4-2.4 21.42 4.88 30.11l-1.7 3.65c-.92 1.96-.06 4.3 1.9 5.21l25.95 12.11c1.96.92 4.3.06 5.21-1.9l1.7-3.65c11.33 0 21.35-5.21 26.2-15.63 7.37-15.8.04-37.54-17.69-45.8m-10.36 28.61 6.03-2.2c1.27-.46 2.68.18 3.14 1.47s-.2 2.68-1.47 3.14l-6.03 2.2c-.63.23-1.3.19-1.87-.07s-1.04-.74-1.27-1.38c-.46-1.27.2-2.68 1.47-3.14m-9.92-9.66c1.27-.46 2.68.18 3.14 1.47l2.2 6.03c.46 1.27-.2 2.68-1.47 3.14-.63.23-1.3.18-1.87-.07-.57-.27-1.04-.74-1.27-1.38l-2.2-6.03c-.46-1.27.2-2.68 1.48-3.15m-15.88 21.57c-5.15-2.4-7.3-8.7-4.82-14.05 2.5-5.36 8.7-7.76 13.86-5.34 5.15 2.4 7.3 8.7 4.82 14.05-2.5 5.36-8.7 7.76-13.85 5.36m8.56 5.99s8.76-5.73 8.75-5.71l.9 10.22s-9.67-4.49-9.66-4.51m20.5 7.54c-5.15-2.4-7.3-8.7-4.8-14.05 2.5-5.36 8.69-7.75 13.86-5.34 5.15 2.4 7.3 8.7 4.82 14.05-2.5 5.36-8.7 7.76-13.85 5.36"/><path d="m414.51 68.82c-17.7-8.25-39.07.08-46.44 15.89-4.85 10.4-2.4 21.42 4.88 30.11l-1.7 3.65c-.92 1.96-.06 4.3 1.9 5.21l25.95 12.1c1.96.92 4.3.06 5.21-1.9l1.7-3.65c11.33 0 21.35-5.21 26.2-15.63 7.37-15.8.04-37.54-17.69-45.8m-10.38 28.61 6.03-2.2c1.27-.46 2.68.18 3.14 1.47s-.2 2.68-1.47 3.14l-6.03 2.2c-.63.23-1.3.19-1.87-.07s-1.04-.74-1.27-1.38c-.46-1.27.2-2.68 1.47-3.14m-9.92-9.65c1.27-.46 2.68.18 3.14 1.47l2.2 6.03c.46 1.27-.2 2.68-1.47 3.14-.63.23-1.3.18-1.87-.07s-1.04-.74-1.27-1.38l-2.2-6.03c-.46-1.27.2-2.68 1.47-3.14m-15.85 21.55c-5.15-2.4-7.3-8.7-4.8-14.05 2.5-5.36 8.69-7.75 13.86-5.34 5.15 2.4 7.3 8.7 4.8 14.05-2.5 5.36-8.69 7.75-13.85 5.36m8.55 5.99s8.76-5.73 8.75-5.71l.9 10.22s-9.67-4.49-9.66-4.51m20.49 7.55c-5.15-2.4-7.3-8.7-4.8-14.05 2.5-5.36 8.69-7.75 13.86-5.34s7.3 8.7 4.82 14.05-8.7 7.76-13.85 5.36"/><path d="m214.51 68.81c-17.7-8.25-39.07.08-46.46 15.89-4.85 10.4-2.4 21.42 4.88 30.11l-1.7 3.65c-.92 1.96-.06 4.3 1.9 5.21l25.95 12.1c1.96.92 4.3.06 5.21-1.9l1.7-3.65c11.33 0 21.35-5.21 26.2-15.63 7.37-15.8.04-37.54-17.69-45.8m-10.36 28.62 6.03-2.2c1.27-.46 2.68.18 3.14 1.47s-.2 2.68-1.47 3.14l-6.03 2.2c-.63.23-1.3.19-1.87-.07-.57-.27-1.04-.74-1.27-1.38-.46-1.27.2-2.68 1.47-3.14m-9.92-9.66c1.27-.46 2.68.18 3.14 1.47l2.2 6.03c.46 1.27-.2 2.68-1.48 3.15-.63.23-1.3.18-1.87-.07-.57-.27-1.04-.74-1.27-1.38l-2.2-6.03c-.46-1.27.2-2.68 1.48-3.15m-15.85 21.56c-5.15-2.4-7.3-8.7-4.8-14.05 2.5-5.36 8.69-7.75 13.86-5.34 5.15 2.4 7.3 8.7 4.8 14.05-2.5 5.36-8.69 7.75-13.85 5.36m8.55 5.99s8.76-5.73 8.75-5.71l.9 10.22s-9.67-4.49-9.66-4.51m20.49 7.54c-5.15-2.4-7.3-8.7-4.8-14.05 2.5-5.36 8.69-7.75 13.86-5.34s7.3 8.7 4.82 14.05-8.7 7.76-13.85 5.36"/><path d="m114.5-31.02c-17.7-8.25-39.07.08-46.46 15.89-4.85 10.4-2.4 21.42 4.88 30.11l-1.7 3.65c-.92 1.96-.06 4.3 1.9 5.21l25.95 12.1c1.96.92 4.3.06 5.21-1.9l1.7-3.65c11.33 0 21.35-5.21 26.2-15.63 7.37-15.8.02-37.53-17.69-45.8m-10.34 28.63 6.03-2.2c1.27-.46 2.68.18 3.14 1.47s-.2 2.68-1.47 3.14l-6.03 2.2c-.63.23-1.3.19-1.87-.07s-1.04-.74-1.27-1.38c-.46-1.27.2-2.68 1.47-3.14m-9.92-9.67c1.27-.46 2.68.18 3.14 1.47l2.2 6.03c.46 1.27-.2 2.68-1.48 3.15-.63.23-1.3.18-1.87-.07-.57-.27-1.04-.74-1.27-1.38l-2.2-6.03c-.46-1.27.2-2.68 1.47-3.14m-15.86 21.56c-5.15-2.4-7.3-8.7-4.82-14.05 2.5-5.36 8.7-7.76 13.86-5.34 5.15 2.4 7.3 8.7 4.82 14.05-2.5 5.36-8.7 7.76-13.85 5.36m8.55 5.98s8.76-5.73 8.75-5.71l.9 10.22s-9.67-4.49-9.66-4.51m20.49 7.54c-5.15-2.4-7.3-8.7-4.82-14.05 2.5-5.36 8.7-7.76 13.86-5.34s7.3 8.7 4.82 14.05c-2.5 5.36-8.7 7.76-13.85 5.36"/><path d="m314.51-31.02c-17.7-8.25-39.07.08-46.46 15.89-4.85 10.4-2.4 21.42 4.86 30.11l-1.7 3.65c-.92 1.96-.06 4.3 1.9 5.21l25.95 12.1c1.96.92 4.3.06 5.21-1.9l1.7-3.65c11.33 0 21.35-5.21 26.2-15.63 7.37-15.8.04-37.54-17.69-45.8m-10.33 28.63 6.03-2.2c1.27-.46 2.68.18 3.14 1.47s-.2 2.68-1.47 3.14l-6.03 2.2c-.63.23-1.3.19-1.87-.07s-1.04-.74-1.27-1.38c-.46-1.27.2-2.68 1.47-3.14m-9.92-9.67c1.27-.46 2.68.18 3.14 1.47l2.2 6.03c.46 1.27-.2 2.68-1.47 3.14-.63.23-1.3.18-1.87-.07s-1.04-.74-1.27-1.38l-2.2-6.03c-.46-1.27.2-2.68 1.47-3.14m-15.87 21.57c-5.15-2.4-7.3-8.7-4.8-14.05 2.5-5.36 8.69-7.75 13.86-5.34 5.15 2.4 7.3 8.7 4.8 14.05-2.5 5.36-8.69 7.75-13.85 5.36m8.55 5.98s8.76-5.73 8.75-5.71l.9 10.22s-9.67-4.49-9.66-4.51m20.49 7.54c-5.15-2.4-7.3-8.7-4.8-14.05 2.5-5.36 8.69-7.75 13.86-5.34s7.3 8.7 4.82 14.05-8.7 7.76-13.85 5.36"/><path d="m14.51 268.81c-17.7-8.25-39.07.08-46.46 15.89-4.85 10.4-2.4 21.42 4.88 30.11l-1.7 3.65c-.92 1.96-.06 4.3 1.9 5.21l25.95 12.1c1.96.92 4.3.06 5.21-1.9l1.7-3.65c11.33-.02 21.34-5.23 26.2-15.63 7.37-15.8.04-37.54-17.68-45.79m-10.37 28.61 6.03-2.2c1.27-.46 2.68.18 3.14 1.47s-.2 2.68-1.47 3.14l-6.03 2.2c-.63.23-1.3.19-1.87-.07-.57-.27-1.04-.74-1.27-1.38-.46-1.27.2-2.68 1.47-3.14m-9.92-9.66c1.27-.46 2.68.2 3.14 1.47l2.2 6.03c.46 1.27-.2 2.68-1.47 3.14-.63.23-1.3.18-1.87-.07-.57-.27-1.04-.74-1.27-1.38l-2.2-6.03c-.46-1.27.2-2.68 1.48-3.15m-15.88 21.57c-5.15-2.4-7.3-8.7-4.82-14.05 2.5-5.36 8.7-7.76 13.86-5.34 5.15 2.4 7.3 8.7 4.82 14.05-2.5 5.36-8.7 7.76-13.86 5.34m8.57 6.01s8.76-5.73 8.75-5.71l.9 10.22s-9.67-4.49-9.66-4.51m20.5 7.54c-5.15-2.4-7.3-8.7-4.8-14.05 2.5-5.36 8.69-7.75 13.86-5.34 5.15 2.4 7.3 8.7 4.82 14.05-2.5 5.36-8.7 7.76-13.86 5.34"/><path d="m414.51 268.82c-17.7-8.25-39.07.08-46.44 15.89-4.85 10.4-2.4 21.42 4.88 30.11l-1.7 3.65c-.92 1.96-.06 4.3 1.9 5.21l25.95 12.1c1.96.92 4.3.06 5.21-1.9l1.7-3.65c11.33-.02 21.34-5.23 26.2-15.63 7.37-15.8.04-37.54-17.68-45.79m-10.39 28.6 6.03-2.2c1.27-.46 2.68.18 3.14 1.47s-.2 2.68-1.47 3.14l-6.03 2.2c-.63.23-1.3.19-1.87-.07-.57-.27-1.04-.74-1.27-1.38-.46-1.27.2-2.68 1.47-3.14m-9.92-9.65c1.27-.46 2.68.2 3.14 1.47l2.2 6.03c.46 1.27-.2 2.68-1.47 3.14-.63.23-1.3.18-1.87-.07s-1.04-.74-1.27-1.38l-2.2-6.03c-.46-1.27.2-2.68 1.47-3.14m-15.85 21.55c-5.15-2.4-7.3-8.7-4.8-14.05 2.5-5.36 8.69-7.75 13.86-5.34s7.3 8.7 4.8 14.05c-2.5 5.36-8.69 7.75-13.86 5.34m8.56 6.01s8.76-5.73 8.75-5.71l.9 10.22s-9.67-4.49-9.66-4.51m20.49 7.55c-5.15-2.4-7.3-8.7-4.8-14.05 2.5-5.36 8.69-7.75 13.86-5.34s7.3 8.7 4.82 14.05c-2.5 5.36-8.7 7.76-13.86 5.34"/><path d="m214.51 268.81c-17.7-8.25-39.07.08-46.46 15.89-4.85 10.4-2.4 21.42 4.88 30.11l-1.7 3.65c-.92 1.96-.06 4.3 1.9 5.21l25.95 12.1c1.96.92 4.3.06 5.21-1.9l1.7-3.65c11.33-.02 21.34-5.23 26.2-15.63 7.37-15.8.04-37.54-17.68-45.79m-10.37 28.61 6.03-2.2c1.27-.46 2.68.18 3.14 1.47s-.2 2.68-1.47 3.14l-6.03 2.2c-.63.23-1.3.19-1.87-.07-.57-.27-1.04-.74-1.27-1.38-.46-1.27.2-2.68 1.47-3.14m-9.92-9.66c1.27-.46 2.68.2 3.14 1.47l2.2 6.03c.46 1.27-.2 2.68-1.48 3.15-.63.23-1.3.18-1.87-.07-.57-.27-1.04-.74-1.27-1.38l-2.2-6.03c-.46-1.27.2-2.68 1.48-3.15m-15.85 21.56c-5.15-2.4-7.3-8.7-4.8-14.05 2.5-5.36 8.69-7.75 13.86-5.34s7.3 8.7 4.8 14.05c-2.5 5.36-8.69 7.75-13.86 5.34m8.56 6.01s8.76-5.73 8.75-5.71l.9 10.22s-9.67-4.49-9.66-4.51m20.49 7.54c-5.15-2.4-7.3-8.7-4.8-14.05 2.5-5.36 8.69-7.75 13.86-5.34s7.3 8.7 4.82 14.05c-2.5 5.36-8.7 7.76-13.86 5.34"/><path d="m114.5 169c-17.7-8.25-39.07.08-46.46 15.89-4.85 10.4-2.4 21.42 4.88 30.11l-1.7 3.65c-.92 1.96-.06 4.3 1.9 5.21l25.95 12.1c1.96.92 4.3.06 5.21-1.9l1.7-3.65c11.33 0 21.35-5.21 26.2-15.62 7.37-15.8.02-37.53-17.68-45.79m-10.36 28.59 6.03-2.2c1.27-.46 2.68.18 3.14 1.47s-.2 2.68-1.47 3.14l-6.03 2.2c-.63.23-1.3.19-1.87-.07s-1.04-.74-1.27-1.38c-.46-1.27.2-2.68 1.47-3.14m-9.92-9.67c1.27-.46 2.68.2 3.14 1.47l2.2 6.03c.46 1.27-.2 2.68-1.48 3.15-.63.23-1.3.18-1.87-.07-.57-.27-1.04-.74-1.27-1.38l-2.2-6.03c-.46-1.27.2-2.68 1.47-3.14m-15.85 21.56c-5.15-2.4-7.3-8.7-4.82-14.05 2.5-5.36 8.7-7.76 13.85-5.36s7.3 8.7 4.82 14.05c-2.5 5.36-8.7 7.76-13.86 5.34m8.57 6.02s8.76-5.73 8.75-5.71l.9 10.22s-9.67-4.49-9.66-4.51m20.48 7.54c-5.15-2.4-7.3-8.7-4.82-14.05 2.5-5.36 8.7-7.76 13.86-5.34 5.15 2.42 7.3 8.7 4.82 14.05-2.5 5.36-8.7 7.76-13.85 5.36"/><path d="m314.51 168.99c-17.7-8.25-39.07.08-46.46 15.89-4.85 10.4-2.4 21.42 4.86 30.11l-1.7 3.65c-.92 1.96-.06 4.3 1.9 5.21l25.95 12.1c1.96.92 4.3.06 5.21-1.9l1.7-3.65c11.33 0 21.35-5.21 26.2-15.62 7.37-15.8.04-37.54-17.68-45.79m-10.35 28.6 6.03-2.2c1.27-.46 2.68.18 3.14 1.47s-.2 2.68-1.47 3.14l-6.03 2.2c-.63.23-1.3.19-1.87-.07s-1.04-.74-1.27-1.38c-.46-1.27.2-2.68 1.47-3.14m-9.92-9.67c1.27-.46 2.68.2 3.14 1.47l2.2 6.03c.46 1.27-.2 2.68-1.47 3.14-.63.23-1.3.18-1.87-.07-.57-.27-1.04-.74-1.27-1.38l-2.2-6.03c-.46-1.27.2-2.68 1.47-3.14m-15.86 21.58c-5.15-2.4-7.3-8.7-4.8-14.05 2.5-5.36 8.69-7.75 13.85-5.36s7.3 8.7 4.8 14.05c-2.5 5.36-8.69 7.75-13.86 5.34m8.57 6.01s8.76-5.73 8.75-5.71l.9 10.22s-9.67-4.49-9.66-4.51m20.48 7.54c-5.15-2.4-7.3-8.7-4.8-14.05 2.5-5.36 8.69-7.75 13.86-5.34s7.3 8.7 4.82 14.05-8.7 7.76-13.85 5.36"/><path d="m114.5 369c-17.7-8.25-39.07.08-46.46 15.89-4.85 10.4-2.4 21.42 4.88 30.11l-1.7 3.65c-.92 1.96-.06 4.3 1.9 5.21l25.95 12.1c1.96.92 4.3.06 5.21-1.9l1.7-3.65c11.33 0 21.34-5.23 26.2-15.62 7.37-15.8.02-37.53-17.68-45.79m-10.36 28.59 6.03-2.2c1.27-.46 2.68.18 3.14 1.45s-.2 2.68-1.47 3.14l-6.03 2.2c-.63.23-1.3.19-1.87-.07-.57-.27-1.04-.74-1.27-1.38-.46-1.27.2-2.68 1.47-3.14m-9.92-9.65c1.27-.46 2.68.2 3.14 1.47l2.2 6.03c.46 1.27-.2 2.68-1.48 3.15-.63.23-1.3.18-1.87-.07-.57-.27-1.04-.74-1.27-1.38l-2.2-6.03c-.46-1.27.2-2.68 1.47-3.14m-15.85 21.56c-5.15-2.4-7.3-8.7-4.82-14.05 2.5-5.36 8.7-7.76 13.86-5.34 5.15 2.4 7.3 8.7 4.82 14.05-2.5 5.36-8.7 7.76-13.85 5.36m8.55 5.98s8.76-5.73 8.75-5.71l.9 10.22s-9.67-4.49-9.66-4.51m20.49 7.56c-5.15-2.4-7.3-8.7-4.82-14.05 2.5-5.36 8.7-7.76 13.86-5.34 5.15 2.4 7.3 8.7 4.82 14.05-2.5 5.36-8.7 7.76-13.85 5.36"/><path d="m314.51 368.99c-17.7-8.25-39.07.08-46.46 15.89-4.85 10.4-2.4 21.42 4.86 30.11l-1.7 3.65c-.92 1.96-.06 4.3 1.9 5.21l25.95 12.1c1.96.92 4.3.06 5.21-1.9l1.7-3.65c11.33 0 21.34-5.23 26.2-15.62 7.37-15.8.04-37.54-17.68-45.79m-10.35 28.6 6.03-2.2c1.27-.46 2.68.18 3.14 1.45s-.2 2.68-1.47 3.14l-6.03 2.2c-.63.23-1.3.19-1.87-.07-.57-.27-1.04-.74-1.27-1.38-.46-1.27.2-2.68 1.47-3.14m-9.92-9.65c1.27-.46 2.68.2 3.14 1.47l2.2 6.03c.46 1.27-.2 2.68-1.47 3.14-.63.23-1.3.18-1.87-.07-.57-.27-1.04-.74-1.27-1.38l-2.2-6.03c-.46-1.27.2-2.68 1.47-3.14m-15.86 21.58c-5.15-2.4-7.3-8.7-4.8-14.05 2.5-5.36 8.69-7.75 13.86-5.34 5.15 2.4 7.3 8.7 4.8 14.05-2.5 5.36-8.69 7.75-13.85 5.36m8.55 5.97s8.76-5.73 8.75-5.71l.9 10.22s-9.67-4.49-9.66-4.51m20.49 7.56c-5.15-2.4-7.3-8.7-4.8-14.05 2.5-5.36 8.69-7.75 13.86-5.34 5.15 2.4 7.3 8.7 4.82 14.05-2.5 5.36-8.7 7.76-13.85 5.36"/></g></g></g></g></svg>