<svg version="1.1" id="Layer_1" xmlns="http://www.w3.org/2000/svg" xmlns:xlink="http://www.w3.org/1999/xlink" x="0px" y="0px"
				viewBox="0 0 231.7 255.2" style="enable-background:new 0 0 231.7 255.2;" xml:space="preserve">
    <g id="Page-1">
        <path id="Path_00000114781019252187347560000000193624004498873530_" d="M195.7,255.2H10.9c-5.8,0-10.9-5.1-10.9-10.9L6.5,23.5
            c0-5.8,5.1-10.9,10.9-10.9h184.8c5.8,0,10.9,5.1,10.9,10.9l-6.5,221.6C205.9,250.1,201.5,255.2,195.7,255.2z"/>
        <g id="Brawl-CTA-_x28_1_x29_" transform="translate(1.000000, 0.000000)">
                <path class="middle-esportNews" id="Path_00000034072195811457929620000001495954368494410113_" style="fill:#772CE8;" d="M211,252.8H26.2c-5.8,0-10.9-5.1-10.9-10.9
                    l6.5-229C21.8,7.1,26.9,2,32.7,2h184.8c5.8,0,10.9,5.1,10.9,10.9l-6.5,229.7C221.2,247.7,216.8,252.8,211,252.8z"/>
                <path class="bottom-esportNews" id="Path_00000118380915976816309380000003166784452096226709_" style="fill:#5814C0;" d="M210.3,252.8H26.2c-5.8,0-10.9-5.1-10.9-10.9
                    v-9.5h205.9v9.5C221.2,247.7,216.8,252.8,210.3,252.8z"/>
                <path class="top-esportNews" id="Path_00000135649234980152766170000001837742375355261581_" style="fill:#A569FF;"  d="M227.7,22.3H21.8V12.2C21.8,6.3,26.2,2,32,2
                    h184.8c5.8,0,10.2,4.4,10.2,10.2L227.7,22.3L227.7,22.3z"/>
                <path class="corner-esportNews" id="Path_00000043420403948413095540000012960388661316089233_" style="fill:#AE78FF;" d="M194.5,2.7h26.5c4.5,0,7.9,4.5,7.3,9
                    l-1.7,21.5L194.5,2.7z"/>
                <path id="Path_00000119109957806299105290000008552286351206134667_" style="fill:none;stroke:#000000;stroke-width:4;" d="M211,252.8H26.2c-5.8,0-10.9-5.1-10.9-10.9
                    l6.5-229C21.8,7.1,26.9,2,32.7,2h184.8c5.8,0,10.9,5.1,10.9,10.9l-6.5,229.7C221.2,247.7,216.8,252.8,211,252.8z"/>
        </g>
    </g>
</svg>


