<svg width="232" height="256" viewBox="0 0 232 256" fill="none" xmlns="http://www.w3.org/2000/svg">
<g clip-path="url(#clip0_13113_5654)">
<path d="M195.7 255.2H10.9C5.1 255.2 0 250.1 0 244.3L6.5 23.4996C6.5 17.6996 11.6 12.5996 17.4 12.5996H202.2C208 12.5996 213.1 17.6996 213.1 23.4996L206.6 245.1C205.9 250.1 201.5 255.2 195.7 255.2Z" fill="black"/>
<path d="M212 252.8H27.1998C21.3998 252.8 16.2998 247.7 16.2998 241.9L22.7998 12.9C22.7998 7.1 27.8998 2 33.6998 2H218.5C224.3 2 229.4 7.1 229.4 12.9L222.9 242.6C222.2 247.7 217.8 252.8 212 252.8Z" fill="#FFFC00"/>
<path d="M211.3 252.8H27.1998C21.3998 252.8 16.2998 247.7 16.2998 241.9V232.4H222.2V241.9C222.2 247.7 217.8 252.8 211.3 252.8Z" fill="#CCCA00"/>
<path d="M228.7 22.3H22.7998V12.2C22.7998 6.3 27.1998 2 32.9998 2H217.8C223.6 2 228 6.4 228 12.2L228.7 22.3Z" fill="#FFFD66"/>
<path d="M195.5 2.7002H222C226.5 2.7002 229.9 7.2002 229.3 11.7002L227.6 33.2002L195.5 2.7002Z" fill="#FFFECC"/>
<path d="M212 252.8H27.1998C21.3998 252.8 16.2998 247.7 16.2998 241.9L22.7998 12.9C22.7998 7.1 27.8998 2 33.6998 2H218.5C224.3 2 229.4 7.1 229.4 12.9L222.9 242.6C222.2 247.7 217.8 252.8 212 252.8Z" stroke="black" stroke-width="4"/>
</g>
<defs>
<clipPath id="clip0_13113_5654">
<rect width="231.7" height="255.2" fill="white"/>
</clipPath>
</defs>
</svg>
