<svg width="40" height="66" viewBox="0 0 40 66" fill="none" xmlns="http://www.w3.org/2000/svg">
<ellipse cx="19.9998" cy="50.8117" rx="15.3333" ry="15.1887" fill="black"/>
<path d="M36 46.8491C36 55.6022 28.8366 62.6981 20 62.6981C11.1634 62.6981 4 55.6022 4 46.8491C4 38.0959 11.1634 31 20 31C28.8366 31 36 38.0959 36 46.8491Z" fill="#6CD947"/>
<path fill-rule="evenodd" clip-rule="evenodd" d="M38 46.8491C38 56.7246 29.9232 64.6981 20 64.6981C10.0768 64.6981 2 56.7246 2 46.8491C2 36.9735 10.0768 29 20 29C29.9232 29 38 36.9735 38 46.8491ZM20 62.6981C28.8366 62.6981 36 55.6022 36 46.8491C36 38.0959 28.8366 31 20 31C11.1634 31 4 38.0959 4 46.8491C4 55.6022 11.1634 62.6981 20 62.6981Z" fill="black"/>
<path fill-rule="evenodd" clip-rule="evenodd" d="M14.9742 53.4521L19.487 38.9238H23.1537L22.0255 42.8353H31.8972L28.5126 53.4521H18.9229H14.9742ZM8.76904 53.4528L12.1537 42.8359H15.8203L12.7178 53.4528H8.76904Z" fill="white"/>
<path d="M15 24.0655L10.3333 27.6976L0 15.4806L8.33333 9.20703L15 24.0655Z" fill="white"/>
<path d="M23.3335 0.623047V22.4155L31.0002 25.3872L40.0002 6.56644L23.3335 0.623047Z" fill="white"/>
</svg>
