<svg width="120" height="120" viewBox="0 0 120 120" fill="none" xmlns="http://www.w3.org/2000/svg">
<path d="M60 -2.62268e-06C93.1371 -1.17422e-06 120 26.8629 120 60V60C120 93.1371 93.1371 120 60 120V120C26.8629 120 -4.07115e-06 93.1371 -2.62268e-06 60V60C-1.17422e-06 26.8629 26.8629 -4.07115e-06 60 -2.62268e-06V-2.62268e-06Z" fill="white"/>
<path fill-rule="evenodd" clip-rule="evenodd" d="M60 3C28.5198 3 3 28.5198 3 60C3 91.4802 28.5198 117 60 117C91.4802 117 117 91.4802 117 60C117 28.5198 91.4802 3 60 3ZM120 60C120 26.8629 93.1371 -1.17422e-06 60 -2.62268e-06C26.8629 -4.07115e-06 -1.17422e-06 26.8629 -2.62268e-06 60C-4.07115e-06 93.1371 26.8629 120 60 120C93.1371 120 120 93.1371 120 60Z" fill="#2D85F3"/>
<path fill-rule="evenodd" clip-rule="evenodd" d="M51.9375 71.5495L39.2237 58.4957L32.7764 64.7752L51.9375 84.4487L90.2237 45.1388L83.7764 38.8594L51.9375 71.5495Z" fill="#2D85F3"/>
</svg>
