<svg fill="none" height="38" viewBox="0 0 28 38" width="28" xmlns="http://www.w3.org/2000/svg" xmlns:xlink="http://www.w3.org/1999/xlink"><filter id="a" color-interpolation-filters="sRGB" filterUnits="userSpaceOnUse" height="37.8403" width="25.2109" x="1" y=".159668"><feFlood flood-opacity="0" result="BackgroundImageFix"/><feColorMatrix in="SourceAlpha" result="hardAlpha" type="matrix" values="0 0 0 0 0 0 0 0 0 0 0 0 0 0 0 0 0 0 127 0"/><feOffset dy="3"/><feComposite in2="hardAlpha" operator="out"/><feColorMatrix type="matrix" values="0 0 0 0 0 0 0 0 0 0 0 0 0 0 0 0 0 0 1 0"/><feBlend in2="BackgroundImageFix" mode="normal" result="effect1_dropShadow_453_4417"/><feBlend in="SourceGraphic" in2="effect1_dropShadow_453_4417" mode="normal" result="shape"/></filter><mask id="b" fill="#000" height="35" maskUnits="userSpaceOnUse" width="26" x="1" y="0"><path d="m1 0h26v35h-26z" fill="#fff"/><path clip-rule="evenodd" d="m4.58579 25.7962c-.78105.781-.78105 2.0474 0 2.8284l2.78961 2.7896c.78105.7811 2.04738.7811 2.8284 0l8.2163-8.2163.0006.0006 4.2038-4.2038c.4487-.4488.6396-1.0577.5727-1.6428-.0019-.0169-.004-.0338-.0064-.0506-.058-.4156-.2468-.8165-.5664-1.1361l-4.2039-4.2038-.0004.0005-8.2161-8.21621c-.7811-.78104-2.04743-.78105-2.82848 0l-2.78961 2.78962c-.78105.78104-.78105 2.04738 0 2.82842l8.21619 8.21617z" fill="#000" fill-rule="evenodd"/></mask><g filter="url(#a)"><path clip-rule="evenodd" d="m4.58579 25.7962c-.78105.781-.78105 2.0474 0 2.8284l2.78961 2.7896c.78105.7811 2.04738.7811 2.8284 0l8.2163-8.2163.0006.0006 4.2038-4.2038c.4487-.4488.6396-1.0577.5727-1.6428-.0019-.0169-.004-.0338-.0064-.0506-.058-.4156-.2468-.8165-.5664-1.1361l-4.2039-4.2038-.0004.0005-8.2161-8.21621c-.7811-.78104-2.04743-.78105-2.82848 0l-2.78961 2.78962c-.78105.78104-.78105 2.04738 0 2.82842l8.21619 8.21617z" fill="#fff" fill-rule="evenodd"/><path d="m4.58579 28.6246 2.12132-2.1213zm0-2.8284-2.12132-2.1213zm2.78961 5.618 2.12132-2.1213zm2.8284 0-2.12129-2.1213zm8.2163-8.2163 2.1213-2.1213-2.1213-2.1213-2.1213 2.1213zm.0006.0006-2.1214 2.1213 2.1214 2.1213 2.1213-2.1213zm4.2038-4.2038-2.1213-2.1214zm.5727-1.6428-2.9807.3393.0002.0016zm-.0064-.0506-2.9711.415zm-.5664-1.1361 2.1213-2.1213zm-4.2039-4.2038 2.1214-2.1213-2.119-2.11898-2.1213 2.11664zm-.0004.0005-2.1213 2.1213 2.119 2.1189 2.1213-2.1166zm-8.2161-8.21621 2.1213-2.12132zm-2.82848 0 2.12132 2.12132h.00001zm-2.78961 2.78962 2.12132 2.12132zm0 2.82842 2.12132-2.12132zm8.21619 8.21617 2.1213 2.1213 2.1213-2.1213-2.1213-2.1213zm-6.09499 8.9234c.39052.3905.39052 1.0237 0 1.4142l-4.24264-4.2426c-1.952623 1.9526-1.952628 5.1184 0 7.071zm2.78961 2.7896-2.78961-2.7896-4.24264 4.2426 2.78961 2.7896zm-1.41421 0c.39052-.3905 1.02369-.3905 1.41421 0l-4.24264 4.2426c1.95262 1.9527 5.11842 1.9527 7.07102 0zm8.21629-8.2163-8.21629 8.2163 4.24259 4.2426 8.2163-8.2162zm4.2432.0006-.0006-.0006-4.2426 4.2427.0005.0005zm-.0388-4.2039-4.2039 4.2039 4.2427 4.2426 4.2038-4.2038zm-.2865.8195c-.0326-.2846.0611-.594.2865-.8195l4.2426 4.2427c1.1229-1.1229 1.5984-2.6502 1.432-4.1049zm.003.0235c-.0012-.0085-.0023-.0169-.0032-.0251l5.9615-.6786c-.0048-.042-.0101-.0841-.016-.1264zm.2833.5703c-.1573-.1574-.2543-.3622-.2833-.5703l5.9423-.83c-.1452-1.0393-.6198-2.0458-1.4163-2.8424zm-4.2038-4.2039 4.2038 4.2039 4.2427-4.2427-4.2038-4.2038zm4.2399.0028.0004-.0004-4.2379-4.24734-.0005.00043zm-12.45647-8.21849 8.21617 8.21619 4.2426-4.24267-8.2161-8.21616zm1.41422 0c-.39053.39053-1.0237.39052-1.41422 0l4.24267-4.24264c-1.9526-1.952613-5.11847-1.952625-7.0711 0zm-2.78962 2.78962 2.78961-2.78962-4.24264-4.24264-2.78961 2.78962zm0-1.41422c.39053.39053.39052 1.02369 0 1.41422l-4.24264-4.24264c-1.95262 1.95262-1.952624 5.11844 0 7.07111zm8.21617 8.21619-8.21617-8.21619-4.24264 4.24269 8.21611 8.2161zm-8.21629 12.4589 8.21629-8.2163-4.2427-4.2426-8.21623 8.2163z" fill="#000" mask="url(#b)"/></g></svg>