<svg width="91" height="118" viewBox="0 0 91 118" fill="none" xmlns="http://www.w3.org/2000/svg">
<path d="M9.15 45.1602H79.79C83.19 45.1602 85.94 47.9202 85.94 51.3102V74.3002C85.94 96.6502 67.79 114.8 45.44 114.8H43.49C21.15 114.81 3 96.6602 3 74.3102V51.3202C3 47.9202 5.76 45.1602 9.15 45.1602Z" fill="#00AFE4"/>
<path d="M10.16 38.0098H81.76C85.18 38.0098 87.95 40.7798 87.95 44.1998V66.8998C87.95 89.3898 69.69 107.65 47.2 107.65H44.72C22.22 107.65 3.95996 89.3898 3.95996 66.8998V44.1998C3.95996 40.7798 6.72996 38.0098 10.15 38.0098H10.16Z" fill="white"/>
<path d="M59.5901 65.2298C59.5901 57.6998 53.4801 51.5898 45.9501 51.5898C38.4201 51.5898 32.3101 57.6998 32.3101 65.2298C32.3101 68.3598 33.3701 71.2298 35.1401 73.5298L34.3501 86.8198H56.7701L56.0301 74.3798C58.2301 71.9598 59.5801 68.7498 59.5801 65.2298H59.5901Z" fill="#00AFE4"/>
<path d="M43.9599 60.6406C39.1099 60.6406 34.8599 63.1806 32.4399 66.9906C32.7599 69.4306 33.7199 71.6606 35.1499 73.5206L34.3599 86.8106H56.7799L56.0399 74.3706C56.5699 73.7906 57.0399 73.1606 57.4699 72.5006C56.5999 65.8106 50.8899 60.6406 43.9599 60.6406Z" fill="black"/>
<path d="M64.38 38.0102C64.38 37.9102 64.4 37.8102 64.4 37.7102C64.4 26.9602 55.68 18.2402 44.93 18.2402C34.18 18.2402 25.46 26.9602 25.46 37.7102C25.46 37.8102 25.47 37.9102 25.48 38.0102H64.38Z" fill="#00AFE4"/>
<path d="M43.2399 27.8398C36.1499 27.8398 30.0499 31.9998 27.1899 38.0098H59.2799C56.4299 31.9998 50.3299 27.8398 43.2299 27.8398H43.2399Z" fill="black"/>
<path d="M10.1601 38.01H27.2101C27.2101 38.01 27.2101 37.95 27.2101 37.92C27.2101 28.1 35.1701 20.15 44.9801 20.15C54.7901 20.15 62.7501 28.11 62.7501 37.92C62.7501 37.95 62.7501 37.98 62.7501 38.01H79.8901C79.8901 38.01 79.8901 37.95 79.8901 37.92C79.8801 18.63 64.2501 3 44.9701 3C25.6901 3 10.0601 18.63 10.0601 37.91C10.0601 37.94 10.0601 37.97 10.0601 38.01C10.0901 38.01 10.1201 38.01 10.1601 38.01Z" fill="white"/>
<path fill-rule="evenodd" clip-rule="evenodd" d="M79.8901 37.92V38.0098H81.76C85.18 38.0098 87.95 40.7798 87.95 44.1998V66.8998C87.95 71.954 87.0277 76.7946 85.3426 81.2623C82.0374 100.301 65.4163 114.8 45.44 114.8H43.49C21.15 114.81 3 96.6602 3 74.3102V51.3202C3 50.1053 3.35238 48.9721 3.95996 48.0174V44.1998C3.95996 41.9053 5.20671 39.9035 7.06006 38.8343C7.94499 38.3238 8.96822 38.0259 10.0601 38.0104C10.0719 38.0102 10.0838 38.0101 10.0957 38.01H10.0601V37.91C10.0601 37.4758 10.068 37.0434 10.0837 36.6131C10.0873 36.5148 10.0913 36.4167 10.0957 36.3186C10.0973 36.2817 10.0991 36.2448 10.1008 36.208C10.9885 17.7185 26.2607 3 44.9701 3C64.2501 3 79.8801 18.63 79.8901 37.92ZM7.13445 35.5157C3.53936 36.7633 0.959961 40.1793 0.959961 44.1998V47.2361C0.34587 48.4673 0 49.8562 0 51.3202V74.3102C0 98.3158 19.492 117.81 43.49 117.8C43.4904 117.8 43.4909 117.8 43.4913 117.8H45.44C66.8031 117.8 84.5852 102.367 88.2488 82.0551C89.9964 77.3286 90.95 72.2215 90.95 66.8998V44.1998C90.95 39.4687 87.3781 35.5746 82.783 35.066C81.3158 15.454 64.9485 0 44.9701 0C24.8374 0 8.3698 15.6943 7.13445 35.5157Z" fill="black"/>
</svg>
