<svg xmlns="http://www.w3.org/2000/svg" viewBox="0 0 112 31" preserveAspectRatio="none">
  <g id="Page-1" stroke="none" stroke-width="1" fill="none" fill-rule="evenodd">
      <g id="Brawl-CTA-Red" transform="translate(1.000000, 0.000000)">
                <path id="Path_00000078031794845888320420000017702438490096673414_" className="st1" fill="#FC7200" d="M108.9,27.1H1.5c-0.8,0-1.5-0.7-1.5-1.5V2.3
           c0-0.8,0.7-1.5,1.5-1.5h107.4c0.8,0,1.5,0.7,1.5,1.5v23.4C110.3,26.4,109.7,27.1,108.9,27.1z"/>
                <path id="Path_00000017513535349645890970000002647217121259736726_" className="st2" fill="#C95B00" d="M108.8,27.1H1.5c-0.8,0-1.5-0.7-1.5-1.5v-1.3
           h110.3v1.3C110.3,26.4,109.7,27.1,108.8,27.1z"/>
                <path id="Path_00000134242673710639074010000008514929874754932919_" className="st3" fill="#FCAA6F" d="M110.3,3.6H0V2.2c0-0.8,0.6-1.4,1.4-1.4
           h107.4c0.8,0,1.4,0.6,1.4,1.4L110.3,3.6L110.3,3.6z"/>
                <path id="Path_00000159452601216537954400000000418990557059648403_" className="st4" fill="#FFCEA1" d="M104.4,0.9h4.7c0.8,0,1.4,0.8,1.3,1.6
           l-0.3,3.8L104.4,0.9z"/>
                <path id="Path_00000160191507927567872960000011535324198873822851_" className="st5" fill="none" stroke="#000000" d="M108.9,27.1H1.5c-0.8,0-1.5-0.7-1.5-1.5V2.3
           c0-0.8,0.7-1.5,1.5-1.5h107.4c0.8,0,1.5,0.7,1.5,1.5v23.4C110.3,26.4,109.7,27.1,108.9,27.1z"/>
      </g>
  </g>
</svg>
