<?xml version="1.0" encoding="UTF-8"?>
<svg xmlns="http://www.w3.org/2000/svg" version="1.1" viewBox="0 0 74.5 73.3">
  <defs>
    <style>
      .cls-1 {
        fill: #fff;
      }
    </style>
  </defs>
  <g>
    <g id="Layer_1">
      <path class="cls-1" d="M74.2,53.6c-.5-1.4-1.5-2.2-2.6-2.8-.2-.1-.4-.2-.6-.3l-1-.5c-3.5-1.9-6.2-4.2-8.1-7-.5-.8-1-1.6-1.4-2.5-.2-.5-.2-.7,0-1,.1-.2.3-.3.5-.5.6-.4,1.2-.8,1.6-1.1.7-.5,1.4-.9,1.7-1.1,1.4-1,2.4-2.1,3.1-3.3.9-1.7,1-3.6.3-5.4-1-2.5-3.3-4.1-6.2-4.1s-1.2,0-1.8.2c-.2,0-.3,0-.5.1,0-1.7,0-3.5-.2-5.3-.5-6.3-2.7-9.5-5-12.1-1.5-1.6-3.2-3-5.1-4.1C45.4,1,41.5,0,37.2,0s-8.2,1-11.7,3c-1.9,1.1-3.6,2.5-5.1,4.1-2.3,2.6-4.5,5.9-5,12.1-.2,1.8-.2,3.6-.2,5.3-.2,0-.3,0-.5-.1-.6-.1-1.2-.2-1.8-.2-2.9,0-5.2,1.6-6.2,4.1-.7,1.8-.6,3.7.3,5.4.6,1.2,1.6,2.3,3.1,3.3.4.3,1,.6,1.7,1.1.4.3,1,.6,1.6,1,.2.1.4.3.5.5.1.2.1.5,0,1-.4.8-.8,1.7-1.4,2.4-1.8,2.7-4.5,5-7.9,6.8-1.8,1-3.7,1.6-4.5,3.7-.6,1.6-.2,3.4,1.3,5,.6.6,1.2,1.1,1.9,1.4,1.5.8,3,1.4,4.7,1.9.3,0,.6.2.9.4.6.5.5,1.2,1.2,2.3.4.6.8,1,1.4,1.4,1.5,1.1,3.3,1.1,5.1,1.2,1.7,0,3.5.1,5.7.8.9.3,1.8.9,2.9,1.5,2.6,1.6,6.1,3.7,11.9,3.7s9.4-2.2,12-3.7c1.1-.6,2-1.2,2.8-1.5,2.1-.7,4-.8,5.7-.8,1.8,0,3.6-.1,5.1-1.2.6-.5,1.2-1,1.6-1.7.5-.9.5-1.5,1-2,.3-.2.6-.3.9-.4,1.6-.4,3.2-1.1,4.7-1.9.7-.4,1.4-.9,2-1.6h0c1.5-1.5,1.8-3.3,1.3-4.9ZM69,56.4c-3.2,1.7-5.3,1.6-6.9,2.6-1.4.9-.6,2.8-1.6,3.5-1.3.9-4.9,0-9.7,1.5-3.9,1.3-6.4,5-13.5,5s-9.5-3.7-13.5-5c-4.8-1.6-8.4-.6-9.7-1.5-1-.7-.2-2.6-1.6-3.5-1.7-1.1-3.8-.9-6.9-2.6-2-1.1-.9-1.8-.2-2.1,11.5-5.6,13.4-14.2,13.4-14.8,0-.8.2-1.4-.6-2.2-.8-.8-4.5-3-5.5-3.7-1.7-1.2-2.4-2.3-1.9-3.8.4-1,1.3-1.4,2.3-1.4s.6,0,.9,0c1.8.4,3.6,1.3,4.7,1.6.1,0,.2,0,.4,0,.6,0,.7-.3.7-.9-.1-2-.4-5.9,0-9.6.4-5,2.1-7.6,4-9.8.9-1.1,5.3-5.7,13.6-5.7s12.7,4.6,13.6,5.6c1.9,2.2,3.6,4.7,4,9.8.3,3.7,0,7.6,0,9.6,0,.7.2.9.7.9s.2,0,.4,0c1-.2,2.8-1.2,4.7-1.6.3,0,.6,0,.9,0,1,0,1.9.4,2.3,1.4.6,1.4-.2,2.6-1.9,3.8-1,.7-4.7,3-5.5,3.7-.9.8-.7,1.4-.6,2.2,0,.6,1.9,9.3,13.4,14.8.7.3,1.8,1-.2,2.1Z"/>
    </g>
  </g>
</svg>