<?xml version="1.0" encoding="UTF-8"?>
<svg id="Layer_2" xmlns="http://www.w3.org/2000/svg" viewBox="0 0 1729.17 411.84">
  <defs>
    <style>
      .cls-1 {
        fill: #fff;
      }
    </style>
  </defs>
  <g id="LOGOS">
    <g>
      <path class="cls-1" d="M305.51,82.55c-22.18-14.46-38.2-37.61-43.19-64.59-1.08-5.83-1.67-11.83-1.67-17.97h-70.8l-.11,283.76c-1.19,31.78-27.34,57.28-59.4,57.28-9.96,0-19.35-2.49-27.61-6.84-18.94-9.97-31.91-29.83-31.91-52.68,0-32.82,26.7-59.52,59.52-59.52,6.13,0,12,1.01,17.56,2.75v-72.28c-5.75-.78-11.6-1.27-17.56-1.27C58.46,151.2,0,209.66,0,281.52c0,44.09,22.03,83.11,55.64,106.7,21.17,14.86,46.92,23.62,74.69,23.62,71.86,0,130.32-58.46,130.32-130.32v-143.89c27.77,19.93,61.79,31.68,98.51,31.68v-70.8c-19.78,0-38.2-5.88-53.64-15.95Z"/>
      <g>
        <path class="cls-1" d="M426.78,98.85h223.27l-20.5,63.88-57.92-.02v236.16h-72.17v-236.16l-72.62.13-.05-63.99Z"/>
        <path class="cls-1" d="M1015.78,98.85h228.43l-20.5,63.88-62.97-.02v236.16h-72.28v-236.16l-72.62.13-.05-63.99Z"/>
        <polygon class="cls-1" points="663.66 194.28 735.24 194.28 735.16 398.87 664.08 398.87 663.66 194.28"/>
        <path class="cls-1" d="M763.63,98.01h71.5v139.72l70.86-69.54h85.36s-89.64,86.99-89.64,86.99l100.4,143.69h-78.78l-67-99.64-21.2,20.6v79.04h-71.5V98.01Z"/>
        <path class="cls-1" d="M1490.69,98.01h71.5v139.72l70.86-69.54h85.36s-89.64,86.99-89.64,86.99l100.4,143.69h-78.78l-67-99.64-21.2,20.6v79.04h-71.5V98.01Z"/>
        <circle class="cls-1" cx="699.43" cy="134.87" r="36.03"/>
        <path class="cls-1" d="M1339.15,153.93c-67.64,0-122.47,54.83-122.47,122.47s54.83,122.47,122.47,122.47,122.47-54.83,122.47-122.47-54.83-122.47-122.47-122.47ZM1339.15,335.93c-32.88,0-59.54-26.66-59.54-59.54s26.66-59.54,59.54-59.54,59.54,26.66,59.54,59.54-26.66,59.54-59.54,59.54Z"/>
      </g>
    </g>
  </g>
</svg>