<?xml version="1.0" encoding="UTF-8"?>
<svg id="Layer_2" data-name="Layer 2" xmlns="http://www.w3.org/2000/svg" viewBox="0 0 248 186">
  <defs>
    <style>
      .cls-1 {
        fill: #0a43a6;
      }

      .cls-2 {
        fill: #fff;
      }
    </style>
  </defs>
  <g id="Layer_1-2" data-name="Layer 1">
    <polygon class="cls-2" points="217 186 0 186 31 0 248 0 217 186"/>
    <path id="facebook" class="cls-1" d="M178.55,32.14h-108.82c-3.48,0-6.67,3.19-6.67,6.52v108.53c0,3.91,3.19,6.67,6.67,6.67h58.39v-47.09h-15.94v-18.4h15.94v-13.48c-1.45-12.17,7.68-22.89,19.85-24.34h3.77c4.93,0,9.42.29,14.2.72v16.23h-9.71c-7.68,0-8.98,3.77-8.98,8.98v11.74h18.11l-2.46,18.4h-15.94v47.24h31.3c3.77,0,6.67-3.19,6.67-6.52V38.66c.14-3.33-2.61-6.52-6.38-6.52Z"/>
  </g>
</svg>