<?xml version="1.0" encoding="UTF-8"?>
<svg id="Layer_2" data-name="Layer 2" xmlns="http://www.w3.org/2000/svg" viewBox="0 0 248 186">
  <defs>
    <style>
      .cls-1 {
        fill: #0a43a6;
      }

      .cls-2 {
        fill: #fff;
      }
    </style>
  </defs>
  <g id="Layer_1-2" data-name="Layer 1">
    <polygon class="cls-2" points="217 186 0 186 31 0 248 0 217 186"/>
    <path id="Reddit" class="cls-1" d="M135.33,109.92c.29.29.29,1,0,1.43-2.44,2.44-5.88,3.44-11.33,3.44-5.16,0-8.89-1-11.33-3.44-.29-.29-.29-1,0-1.43.29-.29,1-.29,1.43,0,2.01,1.72,5.16,2.72,9.61,2.72s7.89-1,9.61-2.72c.72-.43,1.29-.43,2.01,0ZM117.83,97.87c0-2.44-2.01-4.44-4.44-4.44s-4.44,2.01-4.44,4.44,2.01,4.44,4.44,4.44c2.29,0,4.44-2.15,4.44-4.44ZM184.22,93c0,33.41-26.81,60.22-60.22,60.22s-60.22-26.81-60.22-60.22,26.81-60.22,60.22-60.22,60.22,26.81,60.22,60.22ZM159.13,92.28c0-4.16-3.44-7.89-7.89-7.89-2.01,0-4.16.72-5.45,2.01-5.16-3.44-12.33-5.88-20.36-5.88l4.44-13.76,11.76,2.72c0,3.44,2.72,6.17,6.17,6.17s6.17-2.72,6.17-6.17-2.44-5.88-5.88-5.88c-2.72,0-4.87,1.72-5.88,4.16l-12.76-3.15c-.72,0-1,.29-1.43.72l-4.87,15.2c-8.32,0-15.77,2.44-21.36,5.88-1.43-1.43-3.15-2.01-5.16-2.01-4.16,0-7.89,3.44-7.89,7.89,0,2.72,1.72,5.16,3.73,6.6,0,.72-.29,1.72-.29,2.44,0,11.33,14.05,20.65,31.26,20.65s31.26-9.32,31.26-20.65c0-.72,0-1.72-.29-2.44,3.01-1,4.73-3.44,4.73-6.6ZM134.61,93c-2.44,0-4.44,2.01-4.44,4.44s2.01,4.44,4.44,4.44,4.44-2.01,4.44-4.44-2.01-4.44-4.44-4.44Z"/>
  </g>
</svg>